<svg width="599" height="248" viewBox="0 0 599 248" fill="none" xmlns="http://www.w3.org/2000/svg">
<g clip-path="url(#clip0_711_2)">
<path d="M265.073 144.545C275.773 144.919 285.392 150.1 291.563 157.782C293.412 160.087 294.95 162.608 296.113 165.307C297.672 168.892 298.586 172.792 298.669 176.83C299.043 192.471 287.138 204.979 271.285 206.614C269.727 206.772 268.127 206.831 266.506 206.772C265.737 206.752 264.969 206.693 264.221 206.614H203.386L207.043 183.075L209.806 165.327L210.762 159.181L250.425 147.303C252.835 146.22 255.432 145.451 258.154 144.979L258.569 144.841V144.9C260.647 144.565 262.808 144.447 265.031 144.525H265.073V144.545ZM228.069 41.445H274.651L284.686 41.2874C290.047 41.2874 312.257 42.4102 314.48 66.304C315.083 72.7454 312.319 78.2805 308.102 82.4566C306.377 84.1703 303.302 86.7704 298.066 88.4842C295.365 89.3706 217.14 112.555 217.14 112.555L228.048 41.445H228.069ZM553.395 0L546.954 41.1692L543.837 61.1628C543.214 65.654 543.152 68.0375 542.404 70.4013C540.97 74.9122 539.1 78.773 535.506 81.7671C533.636 83.3233 531.537 85.0961 529.231 86.1007C527.216 86.9871 525.761 87.5387 523.206 88.4448L520.214 89.3312L444.731 111.925L462.308 0.0787927H326.676H293.246H189.86H144.255H98.6491H53.0436H6.42008L0 41.5041H91.2524L59.7753 248H105.381L136.879 41.4844H182.754L151.007 247.606L197.007 247.941H265.966L276.334 247.921C280.51 247.665 284.582 247.074 288.509 246.188C311.031 241.125 329.149 226.391 337.854 206.614C340.389 200.843 342.134 194.657 342.945 188.137C343.36 184.828 343.526 181.46 343.443 178.012C343.339 173.698 342.841 169.463 341.989 165.327C340.514 158.176 337.937 151.341 334.468 144.979C330.749 138.163 325.97 131.899 320.381 126.403C322.188 125.694 323.955 124.906 325.658 124.039C342.259 115.727 354.372 100.835 358.403 82.7323C359.296 78.6942 359.795 74.4788 359.836 70.1452V67.9981C359.608 58.6218 357.343 49.6394 353.395 41.445H410.158L378.099 247.921H423.663L437.355 159.693L498.149 141.354L546.019 247.882H591.541L538.186 129.397C538.186 129.397 546.891 127.093 552.938 124C582.732 107.276 586.16 82.0232 586.243 81.708L588.196 70.6573L592.642 41.4253L599 0.0393963L553.395 0Z" fill="#16BF62"/>
</g>
<defs>
<clipPath id="clip0_711_2">
<rect width="599" height="248" fill="white"/>
</clipPath>
</defs>
</svg>
